<svg id="Capa_1" enable-background="new 0 0 512 512" height="512" viewBox="0 0 512 512" width="512" xmlns="http://www.w3.org/2000/svg" xmlns:xlink="http://www.w3.org/1999/xlink"><linearGradient id="SVGID_1_" gradientUnits="userSpaceOnUse" x1="256" x2="256" y1="512" y2="0"><stop offset="0" stop-color="#fd3a84"/><stop offset="1" stop-color="#ffa68d"/></linearGradient><g><g><path d="m256 361c-8.284 0-15 6.716-15 15s6.716 15 15 15 15-6.716 15-15-6.716-15-15-15zm203.44 2.91 20.988-73.807c1.287-4.524.377-9.39-2.458-13.143s-7.267-5.96-11.97-5.96h-47.62c1.741-9.281 2.62-19.308 2.62-30 0-45.94-16.328-105.462-46.081-154.907-33.409-55.518-75.642-86.093-118.919-86.093s-85.51 30.575-118.919 86.093c-29.807 49.534-46.081 109.047-46.081 154.907 0 10.692.878 20.719 2.62 30h-47.62c-4.703 0-9.135 2.206-11.97 5.959s-3.745 8.619-2.458 13.143l20.988 73.808c-33.502 36.341-52.56 84.34-52.56 133.09 0 8.284 6.716 15 15 15h482c8.284 0 15-6.716 15-15 0-48.75-19.059-96.749-52.56-133.09zm-68.44-122.91c0 11.118-1.125 21.153-3.321 30h-36.822c5.946-12.529 9.397-26.18 10.033-40.227 9.359 4.223 19.285 7.489 30.097 9.105.003.373.013.751.013 1.122zm-228.214-139.438c27.367-45.479 61.342-71.562 93.214-71.562s65.847 26.083 93.214 71.562c19.646 32.648 33.61 71.45 39.145 107.179-17.293-4.395-32.87-14.611-49.128-25.281-24.316-15.959-49.46-32.46-83.231-32.46s-58.915 16.501-83.23 32.459c-16.258 10.67-31.835 20.886-49.128 25.281 5.534-35.728 19.498-74.53 39.144-107.178zm168.214 112.347v12.091c0 16.319-5.293 32.066-15.006 45h-119.988c-9.713-12.934-15.006-28.681-15.006-45v-12.091c2.761-1.781 5.501-3.578 8.23-5.369 21.581-14.163 41.963-27.54 66.77-27.54s45.189 13.377 66.77 27.541c2.729 1.791 5.469 3.587 8.23 5.368zm-209.987 25.97c10.812-1.616 20.738-4.882 30.097-9.105.635 14.046 4.087 27.698 10.033 40.227h-36.822c-2.195-8.847-3.321-18.882-3.321-30 0-.372.01-.75.013-1.122zm-90.303 242.121c2.814-29.771 13.922-58.636 31.812-83.057l23.618 83.057zm86.619 0c-3.006-10.572-48.359-170.063-51.469-181h380.279c-3.11 10.937-48.463 170.429-51.469 181zm308.531 0 23.618-83.058c17.89 24.421 28.998 53.286 31.812 83.058z" fill="url(#SVGID_1_)"/></g></g></svg>